<svg width="68" height="68" viewBox="0 0 68 68" fill="none" xmlns="http://www.w3.org/2000/svg">
<path d="M40.5415 68H27.4585C26.5863 68 25.8304 67.7167 25.1908 67.15C24.5511 66.5833 24.1732 65.875 24.0569 65.025L23.0103 57.12C22.2544 56.8367 21.5426 56.4967 20.8751 56.1C20.2053 55.7033 19.5505 55.2783 18.9109 54.825L11.3228 57.885C10.5087 58.1683 9.69465 58.1967 8.8806 57.97C8.06654 57.7433 7.42693 57.2617 6.96175 56.525L0.507463 45.56C0.0422885 44.8233 -0.103078 44.03 0.0713619 43.18C0.245802 42.33 0.681903 41.65 1.37966 41.14L7.92118 36.295C7.86303 35.8983 7.83395 35.5153 7.83395 35.1458V32.8508C7.83395 32.4836 7.86303 32.1017 7.92118 31.705L1.37966 26.86C0.681903 26.35 0.245802 25.67 0.0713619 24.82C-0.103078 23.97 0.0422885 23.1767 0.507463 22.44L6.96175 11.475C7.36878 10.6817 7.99328 10.1853 8.83524 9.9858C9.67953 9.7886 10.5087 9.83167 11.3228 10.115L18.9109 13.175C19.5505 12.7217 20.2192 12.2967 20.917 11.9C21.6147 11.5033 22.3125 11.1633 23.0103 10.88L24.0569 2.975C24.1732 2.125 24.5511 1.41667 25.1908 0.85C25.8304 0.283333 26.5863 0 27.4585 0H40.5415C41.4137 0 42.1696 0.283333 42.8092 0.85C43.4488 1.41667 43.8268 2.125 43.9431 2.975L44.9897 10.88C45.7456 11.1633 46.4585 11.5033 47.1284 11.9C47.7959 12.2967 48.4495 12.7217 49.0891 13.175L56.6772 10.115C57.4913 9.83167 58.3053 9.80333 59.1194 10.03C59.9335 10.2567 60.5731 10.7383 61.0382 11.475L67.4925 22.44C67.9577 23.1767 68.1031 23.97 67.9286 24.82C67.7542 25.67 67.3181 26.35 66.6203 26.86L60.0788 31.705C60.137 32.1017 60.166 32.4836 60.166 32.8508V35.1458C60.166 35.5153 60.1079 35.8983 59.9916 36.295L66.5331 41.14C67.2309 41.65 67.667 42.33 67.8414 43.18C68.0159 44.03 67.8705 44.8233 67.4053 45.56L60.951 56.44C60.4859 57.1767 59.8323 57.6731 58.9903 57.9292C58.146 58.1831 57.3169 58.1683 56.5028 57.885L49.0891 54.825C48.4495 55.2783 47.7808 55.7033 47.083 56.1C46.3853 56.4967 45.6875 56.8367 44.9897 57.12L43.9431 65.025C43.8268 65.875 43.4488 66.5833 42.8092 67.15C42.1696 67.7167 41.4137 68 40.5415 68ZM34.1744 45.9C37.547 45.9 40.4252 44.7383 42.8092 42.415C45.1932 40.0917 46.3853 37.2867 46.3853 34C46.3853 30.7133 45.1932 27.9083 42.8092 25.585C40.4252 23.2617 37.547 22.1 34.1744 22.1C30.7438 22.1 27.8504 23.2617 25.4943 25.585C23.1405 27.9083 21.9636 30.7133 21.9636 34C21.9636 37.2867 23.1405 40.0917 25.4943 42.415C27.8504 44.7383 30.7438 45.9 34.1744 45.9Z" fill="white"/>
</svg>
