<svg width="315" height="334" viewBox="0 0 315 334" fill="none" xmlns="http://www.w3.org/2000/svg">
<rect width="315" height="334" rx="22" fill="#EAEAEA"/>
<path d="M46.06 308L55.3 294H56.32L59.96 308H58.92L55.52 294.62H55.94L47.2 308H46.06ZM49.2 304.06L49.72 303.2H58.08L58.26 304.06H49.2ZM54.86 292.86L57.9 290.5H59.4L56 292.86H54.86ZM62.1616 308L64.2416 297.56H65.2216L64.5816 300.7L64.4616 300.34C64.9149 299.393 65.5282 298.68 66.3016 298.2C67.0749 297.72 68.0482 297.48 69.2216 297.48L69.0416 298.46C68.9882 298.46 68.9349 298.46 68.8816 298.46C68.8282 298.447 68.7749 298.44 68.7216 298.44C67.5482 298.44 66.5749 298.793 65.8016 299.5C65.0416 300.193 64.5216 301.24 64.2416 302.64L63.1616 308H62.1616ZM74.6327 308.08C73.6593 308.08 72.8127 307.907 72.0927 307.56C71.3727 307.2 70.8193 306.693 70.4327 306.04C70.0593 305.387 69.8727 304.607 69.8727 303.7C69.8727 302.513 70.1193 301.453 70.6127 300.52C71.1193 299.587 71.7993 298.847 72.6527 298.3C73.5193 297.753 74.4927 297.48 75.5727 297.48C76.4927 297.48 77.2793 297.653 77.9327 298C78.586 298.347 79.0927 298.847 79.4527 299.5C79.826 300.14 80.0127 300.92 80.0127 301.84C80.0127 302.04 79.9993 302.24 79.9727 302.44C79.946 302.64 79.9193 302.827 79.8927 303H70.6327L70.7727 302.22H79.4127L79.0127 302.56C79.1593 301.64 79.0993 300.873 78.8327 300.26C78.566 299.633 78.146 299.16 77.5727 298.84C77.0127 298.507 76.3393 298.34 75.5527 298.34C74.646 298.34 73.8327 298.573 73.1127 299.04C72.406 299.493 71.8527 300.12 71.4527 300.92C71.0527 301.707 70.8527 302.62 70.8527 303.66C70.8527 304.793 71.1793 305.667 71.8327 306.28C72.486 306.88 73.446 307.18 74.7127 307.18C75.4593 307.18 76.1393 307.06 76.7527 306.82C77.3793 306.567 77.8927 306.22 78.2927 305.78L78.7527 306.48C78.2993 306.973 77.706 307.367 76.9727 307.66C76.2527 307.94 75.4727 308.08 74.6327 308.08ZM86.3258 308.08C85.4324 308.08 84.6458 307.907 83.9658 307.56C83.2858 307.213 82.7591 306.713 82.3858 306.06C82.0124 305.407 81.8258 304.633 81.8258 303.74C81.8258 302.833 81.9658 302 82.2458 301.24C82.5391 300.48 82.9524 299.82 83.4858 299.26C84.0191 298.7 84.6458 298.267 85.3658 297.96C86.0858 297.64 86.8724 297.48 87.7258 297.48C88.6458 297.48 89.4258 297.647 90.0658 297.98C90.7058 298.3 91.1924 298.773 91.5258 299.4C91.8724 300.013 92.0458 300.76 92.0458 301.64C92.0591 302.88 91.8258 303.987 91.3458 304.96C90.8791 305.933 90.2124 306.7 89.3458 307.26C88.4924 307.807 87.4858 308.08 86.3258 308.08ZM86.5258 307.18C87.4724 307.18 88.3124 306.953 89.0458 306.5C89.7791 306.047 90.3591 305.42 90.7858 304.62C91.2124 303.807 91.4258 302.893 91.4258 301.88C91.4258 300.76 91.0991 299.9 90.4458 299.3C89.8058 298.687 88.8991 298.38 87.7258 298.38C86.7924 298.38 85.9524 298.613 85.2058 299.08C84.4724 299.533 83.8924 300.16 83.4658 300.96C83.0391 301.76 82.8258 302.667 82.8258 303.68C82.8258 304.787 83.1458 305.647 83.7858 306.26C84.4391 306.873 85.3524 307.18 86.5258 307.18ZM90.3258 308L90.9658 304.74L91.5458 302.92L91.6858 301L92.3658 297.56H93.3658L91.2858 308H90.3258ZM107.339 308.1C105.965 308.1 104.799 307.86 103.839 307.38C102.892 306.9 102.165 306.227 101.659 305.36C101.152 304.493 100.899 303.487 100.899 302.34C100.899 301.207 101.092 300.133 101.479 299.12C101.865 298.107 102.425 297.207 103.159 296.42C103.892 295.633 104.785 295.02 105.839 294.58C106.892 294.127 108.079 293.9 109.399 293.9C110.519 293.9 111.512 294.073 112.379 294.42C113.245 294.753 113.925 295.227 114.419 295.84L113.699 296.48C113.219 295.92 112.612 295.507 111.879 295.24C111.159 294.973 110.312 294.84 109.339 294.84C108.205 294.84 107.179 295.033 106.259 295.42C105.352 295.807 104.572 296.347 103.919 297.04C103.279 297.72 102.785 298.513 102.439 299.42C102.092 300.327 101.919 301.287 101.919 302.3C101.919 303.26 102.125 304.107 102.539 304.84C102.952 305.573 103.565 306.147 104.379 306.56C105.205 306.96 106.232 307.16 107.459 307.16C108.339 307.16 109.139 307.02 109.859 306.74C110.579 306.447 111.245 306.033 111.859 305.5L112.279 306.32C111.665 306.867 110.925 307.3 110.059 307.62C109.205 307.94 108.299 308.1 107.339 308.1ZM111.319 306.2L112.359 301.06H113.339L112.279 306.32L111.319 306.2Z" fill="#000002"/>
<path d="M46.06 226L55.3 212H56.32L59.96 226H58.92L55.52 212.62H55.94L47.2 226H46.06ZM49.2 222.06L49.72 221.2H58.08L58.26 222.06H49.2ZM54.86 210.86L57.9 208.5H59.4L56 210.86H54.86ZM62.1616 226L64.2416 215.56H65.2216L64.5816 218.7L64.4616 218.34C64.9149 217.393 65.5282 216.68 66.3016 216.2C67.0749 215.72 68.0482 215.48 69.2216 215.48L69.0416 216.46C68.9882 216.46 68.9349 216.46 68.8816 216.46C68.8282 216.447 68.7749 216.44 68.7216 216.44C67.5482 216.44 66.5749 216.793 65.8016 217.5C65.0416 218.193 64.5216 219.24 64.2416 220.64L63.1616 226H62.1616ZM74.6327 226.08C73.6593 226.08 72.8127 225.907 72.0927 225.56C71.3727 225.2 70.8193 224.693 70.4327 224.04C70.0593 223.387 69.8727 222.607 69.8727 221.7C69.8727 220.513 70.1193 219.453 70.6127 218.52C71.1193 217.587 71.7993 216.847 72.6527 216.3C73.5193 215.753 74.4927 215.48 75.5727 215.48C76.4927 215.48 77.2793 215.653 77.9327 216C78.586 216.347 79.0927 216.847 79.4527 217.5C79.826 218.14 80.0127 218.92 80.0127 219.84C80.0127 220.04 79.9993 220.24 79.9727 220.44C79.946 220.64 79.9193 220.827 79.8927 221H70.6327L70.7727 220.22H79.4127L79.0127 220.56C79.1593 219.64 79.0993 218.873 78.8327 218.26C78.566 217.633 78.146 217.16 77.5727 216.84C77.0127 216.507 76.3393 216.34 75.5527 216.34C74.646 216.34 73.8327 216.573 73.1127 217.04C72.406 217.493 71.8527 218.12 71.4527 218.92C71.0527 219.707 70.8527 220.62 70.8527 221.66C70.8527 222.793 71.1793 223.667 71.8327 224.28C72.486 224.88 73.446 225.18 74.7127 225.18C75.4593 225.18 76.1393 225.06 76.7527 224.82C77.3793 224.567 77.8927 224.22 78.2927 223.78L78.7527 224.48C78.2993 224.973 77.706 225.367 76.9727 225.66C76.2527 225.94 75.4727 226.08 74.6327 226.08ZM86.3258 226.08C85.4324 226.08 84.6458 225.907 83.9658 225.56C83.2858 225.213 82.7591 224.713 82.3858 224.06C82.0124 223.407 81.8258 222.633 81.8258 221.74C81.8258 220.833 81.9658 220 82.2458 219.24C82.5391 218.48 82.9524 217.82 83.4858 217.26C84.0191 216.7 84.6458 216.267 85.3658 215.96C86.0858 215.64 86.8724 215.48 87.7258 215.48C88.6458 215.48 89.4258 215.647 90.0658 215.98C90.7058 216.3 91.1924 216.773 91.5258 217.4C91.8724 218.013 92.0458 218.76 92.0458 219.64C92.0591 220.88 91.8258 221.987 91.3458 222.96C90.8791 223.933 90.2124 224.7 89.3458 225.26C88.4924 225.807 87.4858 226.08 86.3258 226.08ZM86.5258 225.18C87.4724 225.18 88.3124 224.953 89.0458 224.5C89.7791 224.047 90.3591 223.42 90.7858 222.62C91.2124 221.807 91.4258 220.893 91.4258 219.88C91.4258 218.76 91.0991 217.9 90.4458 217.3C89.8058 216.687 88.8991 216.38 87.7258 216.38C86.7924 216.38 85.9524 216.613 85.2058 217.08C84.4724 217.533 83.8924 218.16 83.4658 218.96C83.0391 219.76 82.8258 220.667 82.8258 221.68C82.8258 222.787 83.1458 223.647 83.7858 224.26C84.4391 224.873 85.3524 225.18 86.5258 225.18ZM90.3258 226L90.9658 222.74L91.5458 220.92L91.6858 219L92.3658 215.56H93.3658L91.2858 226H90.3258ZM103.359 218.44H110.939L110.759 219.34H103.179L103.359 218.44ZM102.159 225.08H110.799L110.599 226H100.959L103.759 212H113.119L112.919 212.92H104.599L102.159 225.08Z" fill="#000002"/>
<line x1="159.5" y1="1.99548" x2="160.5" y2="333.995" stroke="white" stroke-width="3"/>
<line x1="1" y1="83.5" x2="315" y2="83.5" stroke="white" stroke-width="3"/>
<path d="M0 174H314" stroke="white" stroke-width="3"/>
<path d="M1 258.5H315" stroke="white" stroke-width="3"/>
<rect x="162" y="85" width="152" height="87" fill="#FFED4B" fill-opacity="0.54"/>
<path d="M204.06 226L213.3 212H214.32L217.96 226H216.92L213.52 212.62H213.94L205.2 226H204.06ZM207.2 222.06L207.72 221.2H216.08L216.26 222.06H207.2ZM212.86 210.86L215.9 208.5H217.4L214 210.86H212.86ZM220.162 226L222.242 215.56H223.222L222.582 218.7L222.462 218.34C222.915 217.393 223.528 216.68 224.302 216.2C225.075 215.72 226.048 215.48 227.222 215.48L227.042 216.46C226.988 216.46 226.935 216.46 226.882 216.46C226.828 216.447 226.775 216.44 226.722 216.44C225.548 216.44 224.575 216.793 223.802 217.5C223.042 218.193 222.522 219.24 222.242 220.64L221.162 226H220.162ZM232.633 226.08C231.659 226.08 230.813 225.907 230.093 225.56C229.373 225.2 228.819 224.693 228.433 224.04C228.059 223.387 227.873 222.607 227.873 221.7C227.873 220.513 228.119 219.453 228.613 218.52C229.119 217.587 229.799 216.847 230.653 216.3C231.519 215.753 232.493 215.48 233.573 215.48C234.493 215.48 235.279 215.653 235.933 216C236.586 216.347 237.093 216.847 237.453 217.5C237.826 218.14 238.013 218.92 238.013 219.84C238.013 220.04 237.999 220.24 237.973 220.44C237.946 220.64 237.919 220.827 237.893 221H228.633L228.773 220.22H237.413L237.013 220.56C237.159 219.64 237.099 218.873 236.833 218.26C236.566 217.633 236.146 217.16 235.573 216.84C235.013 216.507 234.339 216.34 233.553 216.34C232.646 216.34 231.833 216.573 231.113 217.04C230.406 217.493 229.853 218.12 229.453 218.92C229.053 219.707 228.853 220.62 228.853 221.66C228.853 222.793 229.179 223.667 229.833 224.28C230.486 224.88 231.446 225.18 232.713 225.18C233.459 225.18 234.139 225.06 234.753 224.82C235.379 224.567 235.893 224.22 236.293 223.78L236.753 224.48C236.299 224.973 235.706 225.367 234.973 225.66C234.253 225.94 233.473 226.08 232.633 226.08ZM244.326 226.08C243.432 226.08 242.646 225.907 241.966 225.56C241.286 225.213 240.759 224.713 240.386 224.06C240.012 223.407 239.826 222.633 239.826 221.74C239.826 220.833 239.966 220 240.246 219.24C240.539 218.48 240.952 217.82 241.486 217.26C242.019 216.7 242.646 216.267 243.366 215.96C244.086 215.64 244.872 215.48 245.726 215.48C246.646 215.48 247.426 215.647 248.066 215.98C248.706 216.3 249.192 216.773 249.526 217.4C249.872 218.013 250.046 218.76 250.046 219.64C250.059 220.88 249.826 221.987 249.346 222.96C248.879 223.933 248.212 224.7 247.346 225.26C246.492 225.807 245.486 226.08 244.326 226.08ZM244.526 225.18C245.472 225.18 246.312 224.953 247.046 224.5C247.779 224.047 248.359 223.42 248.786 222.62C249.212 221.807 249.426 220.893 249.426 219.88C249.426 218.76 249.099 217.9 248.446 217.3C247.806 216.687 246.899 216.38 245.726 216.38C244.792 216.38 243.952 216.613 243.206 217.08C242.472 217.533 241.892 218.16 241.466 218.96C241.039 219.76 240.826 220.667 240.826 221.68C240.826 222.787 241.146 223.647 241.786 224.26C242.439 224.873 243.352 225.18 244.526 225.18ZM248.326 226L248.966 222.74L249.546 220.92L249.686 219L250.366 215.56H251.366L249.286 226H248.326ZM261.259 218.9H268.839L268.659 219.82H261.079L261.259 218.9ZM259.979 226H258.959L261.759 212H271.119L270.919 212.92H262.599L259.979 226Z" fill="#000002"/>
<path d="M205.06 135L214.3 121H215.32L218.96 135H217.92L214.52 121.62H214.94L206.2 135H205.06ZM208.2 131.06L208.72 130.2H217.08L217.26 131.06H208.2ZM213.86 119.86L216.9 117.5H218.4L215 119.86H213.86ZM221.162 135L223.242 124.56H224.222L223.582 127.7L223.462 127.34C223.915 126.393 224.528 125.68 225.302 125.2C226.075 124.72 227.048 124.48 228.222 124.48L228.042 125.46C227.988 125.46 227.935 125.46 227.882 125.46C227.828 125.447 227.775 125.44 227.722 125.44C226.548 125.44 225.575 125.793 224.802 126.5C224.042 127.193 223.522 128.24 223.242 129.64L222.162 135H221.162ZM233.633 135.08C232.659 135.08 231.813 134.907 231.093 134.56C230.373 134.2 229.819 133.693 229.433 133.04C229.059 132.387 228.873 131.607 228.873 130.7C228.873 129.513 229.119 128.453 229.613 127.52C230.119 126.587 230.799 125.847 231.653 125.3C232.519 124.753 233.493 124.48 234.573 124.48C235.493 124.48 236.279 124.653 236.933 125C237.586 125.347 238.093 125.847 238.453 126.5C238.826 127.14 239.013 127.92 239.013 128.84C239.013 129.04 238.999 129.24 238.973 129.44C238.946 129.64 238.919 129.827 238.893 130H229.633L229.773 129.22H238.413L238.013 129.56C238.159 128.64 238.099 127.873 237.833 127.26C237.566 126.633 237.146 126.16 236.573 125.84C236.013 125.507 235.339 125.34 234.553 125.34C233.646 125.34 232.833 125.573 232.113 126.04C231.406 126.493 230.853 127.12 230.453 127.92C230.053 128.707 229.853 129.62 229.853 130.66C229.853 131.793 230.179 132.667 230.833 133.28C231.486 133.88 232.446 134.18 233.713 134.18C234.459 134.18 235.139 134.06 235.753 133.82C236.379 133.567 236.893 133.22 237.293 132.78L237.753 133.48C237.299 133.973 236.706 134.367 235.973 134.66C235.253 134.94 234.473 135.08 233.633 135.08ZM245.326 135.08C244.432 135.08 243.646 134.907 242.966 134.56C242.286 134.213 241.759 133.713 241.386 133.06C241.012 132.407 240.826 131.633 240.826 130.74C240.826 129.833 240.966 129 241.246 128.24C241.539 127.48 241.952 126.82 242.486 126.26C243.019 125.7 243.646 125.267 244.366 124.96C245.086 124.64 245.872 124.48 246.726 124.48C247.646 124.48 248.426 124.647 249.066 124.98C249.706 125.3 250.192 125.773 250.526 126.4C250.872 127.013 251.046 127.76 251.046 128.64C251.059 129.88 250.826 130.987 250.346 131.96C249.879 132.933 249.212 133.7 248.346 134.26C247.492 134.807 246.486 135.08 245.326 135.08ZM245.526 134.18C246.472 134.18 247.312 133.953 248.046 133.5C248.779 133.047 249.359 132.42 249.786 131.62C250.212 130.807 250.426 129.893 250.426 128.88C250.426 127.76 250.099 126.9 249.446 126.3C248.806 125.687 247.899 125.38 246.726 125.38C245.792 125.38 244.952 125.613 244.206 126.08C243.472 126.533 242.892 127.16 242.466 127.96C242.039 128.76 241.826 129.667 241.826 130.68C241.826 131.787 242.146 132.647 242.786 133.26C243.439 133.873 244.352 134.18 245.526 134.18ZM249.326 135L249.966 131.74L250.546 129.92L250.686 128L251.366 124.56H252.366L250.286 135H249.326ZM259.959 135L262.759 121H267.959C269.359 121 270.545 121.233 271.519 121.7C272.492 122.167 273.225 122.827 273.719 123.68C274.225 124.52 274.479 125.513 274.479 126.66C274.479 127.873 274.272 128.993 273.859 130.02C273.459 131.047 272.872 131.933 272.099 132.68C271.339 133.413 270.425 133.987 269.359 134.4C268.292 134.8 267.092 135 265.759 135H259.959ZM261.159 134.08H265.819C267.379 134.08 268.725 133.767 269.859 133.14C271.005 132.5 271.885 131.627 272.499 130.52C273.125 129.4 273.439 128.127 273.439 126.7C273.439 125.74 273.232 124.9 272.819 124.18C272.405 123.46 271.785 122.907 270.959 122.52C270.132 122.12 269.092 121.92 267.839 121.92H263.599L261.159 134.08Z" fill="#000002"/>
<path d="M49.06 47L58.3 33H59.32L62.96 47H61.92L58.52 33.62H58.94L50.2 47H49.06ZM52.2 43.06L52.72 42.2H61.08L61.26 43.06H52.2ZM57.86 31.86L60.9 29.5H62.4L59 31.86H57.86ZM65.1616 47L67.2416 36.56H68.2216L67.5816 39.7L67.4616 39.34C67.9149 38.3933 68.5282 37.68 69.3016 37.2C70.0749 36.72 71.0482 36.48 72.2216 36.48L72.0416 37.46C71.9882 37.46 71.9349 37.46 71.8816 37.46C71.8282 37.4467 71.7749 37.44 71.7216 37.44C70.5482 37.44 69.5749 37.7933 68.8016 38.5C68.0416 39.1933 67.5216 40.24 67.2416 41.64L66.1616 47H65.1616ZM77.6327 47.08C76.6593 47.08 75.8127 46.9067 75.0927 46.56C74.3727 46.2 73.8193 45.6933 73.4327 45.04C73.0593 44.3867 72.8727 43.6067 72.8727 42.7C72.8727 41.5133 73.1193 40.4533 73.6127 39.52C74.1193 38.5867 74.7993 37.8467 75.6527 37.3C76.5193 36.7533 77.4927 36.48 78.5727 36.48C79.4927 36.48 80.2793 36.6533 80.9327 37C81.586 37.3467 82.0927 37.8467 82.4527 38.5C82.826 39.14 83.0127 39.92 83.0127 40.84C83.0127 41.04 82.9993 41.24 82.9727 41.44C82.946 41.64 82.9193 41.8267 82.8927 42H73.6327L73.7727 41.22H82.4127L82.0127 41.56C82.1593 40.64 82.0993 39.8733 81.8327 39.26C81.566 38.6333 81.146 38.16 80.5727 37.84C80.0127 37.5067 79.3393 37.34 78.5527 37.34C77.646 37.34 76.8327 37.5733 76.1127 38.04C75.406 38.4933 74.8527 39.12 74.4527 39.92C74.0527 40.7067 73.8527 41.62 73.8527 42.66C73.8527 43.7933 74.1793 44.6667 74.8327 45.28C75.486 45.88 76.446 46.18 77.7127 46.18C78.4593 46.18 79.1393 46.06 79.7527 45.82C80.3793 45.5667 80.8927 45.22 81.2927 44.78L81.7527 45.48C81.2993 45.9733 80.706 46.3667 79.9727 46.66C79.2527 46.94 78.4727 47.08 77.6327 47.08ZM89.3258 47.08C88.4324 47.08 87.6458 46.9067 86.9658 46.56C86.2858 46.2133 85.7591 45.7133 85.3858 45.06C85.0124 44.4067 84.8258 43.6333 84.8258 42.74C84.8258 41.8333 84.9658 41 85.2458 40.24C85.5391 39.48 85.9524 38.82 86.4858 38.26C87.0191 37.7 87.6458 37.2667 88.3658 36.96C89.0858 36.64 89.8724 36.48 90.7258 36.48C91.6458 36.48 92.4258 36.6467 93.0658 36.98C93.7058 37.3 94.1924 37.7733 94.5258 38.4C94.8724 39.0133 95.0458 39.76 95.0458 40.64C95.0591 41.88 94.8258 42.9867 94.3458 43.96C93.8791 44.9333 93.2124 45.7 92.3458 46.26C91.4924 46.8067 90.4858 47.08 89.3258 47.08ZM89.5258 46.18C90.4724 46.18 91.3124 45.9533 92.0458 45.5C92.7791 45.0467 93.3591 44.42 93.7858 43.62C94.2124 42.8067 94.4258 41.8933 94.4258 40.88C94.4258 39.76 94.0991 38.9 93.4458 38.3C92.8058 37.6867 91.8991 37.38 90.7258 37.38C89.7924 37.38 88.9524 37.6133 88.2058 38.08C87.4724 38.5333 86.8924 39.16 86.4658 39.96C86.0391 40.76 85.8258 41.6667 85.8258 42.68C85.8258 43.7867 86.1458 44.6467 86.7858 45.26C87.4391 45.8733 88.3524 46.18 89.5258 46.18ZM93.3258 47L93.9658 43.74L94.5458 41.92L94.6858 40L95.3658 36.56H96.3658L94.2858 47H93.3258ZM98.5019 47.08C98.2885 47.08 98.0952 47 97.9219 46.84C97.7619 46.68 97.6819 46.4867 97.6819 46.26C97.6819 46.0067 97.7685 45.8 97.9419 45.64C98.1285 45.4667 98.3352 45.38 98.5619 45.38C98.7885 45.38 98.9819 45.46 99.1419 45.62C99.3019 45.7667 99.3819 45.96 99.3819 46.2C99.3819 46.3733 99.3419 46.5267 99.2619 46.66C99.1819 46.7933 99.0752 46.9 98.9419 46.98C98.8085 47.0467 98.6619 47.08 98.5019 47.08ZM102.602 47.08C102.389 47.08 102.195 47 102.022 46.84C101.862 46.68 101.782 46.4867 101.782 46.26C101.782 46.0067 101.869 45.8 102.042 45.64C102.229 45.4667 102.435 45.38 102.662 45.38C102.889 45.38 103.082 45.46 103.242 45.62C103.402 45.7667 103.482 45.96 103.482 46.2C103.482 46.3733 103.442 46.5267 103.362 46.66C103.282 46.7933 103.175 46.9 103.042 46.98C102.909 47.0467 102.762 47.08 102.602 47.08ZM106.702 47.08C106.489 47.08 106.295 47 106.122 46.84C105.962 46.68 105.882 46.4867 105.882 46.26C105.882 46.0067 105.969 45.8 106.142 45.64C106.329 45.4667 106.535 45.38 106.762 45.38C106.989 45.38 107.182 45.46 107.342 45.62C107.502 45.7667 107.582 45.96 107.582 46.2C107.582 46.3733 107.542 46.5267 107.462 46.66C107.382 46.7933 107.275 46.9 107.142 46.98C107.009 47.0467 106.862 47.08 106.702 47.08Z" fill="#000002"/>
<path d="M204.06 48L213.3 34H214.32L217.96 48H216.92L213.52 34.62H213.94L205.2 48H204.06ZM207.2 44.06L207.72 43.2H216.08L216.26 44.06H207.2ZM212.86 32.86L215.9 30.5H217.4L214 32.86H212.86ZM220.162 48L222.242 37.56H223.222L222.582 40.7L222.462 40.34C222.915 39.3933 223.528 38.68 224.302 38.2C225.075 37.72 226.048 37.48 227.222 37.48L227.042 38.46C226.988 38.46 226.935 38.46 226.882 38.46C226.828 38.4467 226.775 38.44 226.722 38.44C225.548 38.44 224.575 38.7933 223.802 39.5C223.042 40.1933 222.522 41.24 222.242 42.64L221.162 48H220.162ZM232.633 48.08C231.659 48.08 230.813 47.9067 230.093 47.56C229.373 47.2 228.819 46.6933 228.433 46.04C228.059 45.3867 227.873 44.6067 227.873 43.7C227.873 42.5133 228.119 41.4533 228.613 40.52C229.119 39.5867 229.799 38.8467 230.653 38.3C231.519 37.7533 232.493 37.48 233.573 37.48C234.493 37.48 235.279 37.6533 235.933 38C236.586 38.3467 237.093 38.8467 237.453 39.5C237.826 40.14 238.013 40.92 238.013 41.84C238.013 42.04 237.999 42.24 237.973 42.44C237.946 42.64 237.919 42.8267 237.893 43H228.633L228.773 42.22H237.413L237.013 42.56C237.159 41.64 237.099 40.8733 236.833 40.26C236.566 39.6333 236.146 39.16 235.573 38.84C235.013 38.5067 234.339 38.34 233.553 38.34C232.646 38.34 231.833 38.5733 231.113 39.04C230.406 39.4933 229.853 40.12 229.453 40.92C229.053 41.7067 228.853 42.62 228.853 43.66C228.853 44.7933 229.179 45.6667 229.833 46.28C230.486 46.88 231.446 47.18 232.713 47.18C233.459 47.18 234.139 47.06 234.753 46.82C235.379 46.5667 235.893 46.22 236.293 45.78L236.753 46.48C236.299 46.9733 235.706 47.3667 234.973 47.66C234.253 47.94 233.473 48.08 232.633 48.08ZM244.326 48.08C243.432 48.08 242.646 47.9067 241.966 47.56C241.286 47.2133 240.759 46.7133 240.386 46.06C240.012 45.4067 239.826 44.6333 239.826 43.74C239.826 42.8333 239.966 42 240.246 41.24C240.539 40.48 240.952 39.82 241.486 39.26C242.019 38.7 242.646 38.2667 243.366 37.96C244.086 37.64 244.872 37.48 245.726 37.48C246.646 37.48 247.426 37.6467 248.066 37.98C248.706 38.3 249.192 38.7733 249.526 39.4C249.872 40.0133 250.046 40.76 250.046 41.64C250.059 42.88 249.826 43.9867 249.346 44.96C248.879 45.9333 248.212 46.7 247.346 47.26C246.492 47.8067 245.486 48.08 244.326 48.08ZM244.526 47.18C245.472 47.18 246.312 46.9533 247.046 46.5C247.779 46.0467 248.359 45.42 248.786 44.62C249.212 43.8067 249.426 42.8933 249.426 41.88C249.426 40.76 249.099 39.9 248.446 39.3C247.806 38.6867 246.899 38.38 245.726 38.38C244.792 38.38 243.952 38.6133 243.206 39.08C242.472 39.5333 241.892 40.16 241.466 40.96C241.039 41.76 240.826 42.6667 240.826 43.68C240.826 44.7867 241.146 45.6467 241.786 46.26C242.439 46.8733 243.352 47.18 244.526 47.18ZM248.326 48L248.966 44.74L249.546 42.92L249.686 41L250.366 37.56H251.366L249.286 48H248.326ZM258.959 48L261.759 34H267.559C268.865 34 269.892 34.2467 270.639 34.74C271.385 35.2333 271.759 35.96 271.759 36.92C271.759 37.8267 271.532 38.5867 271.079 39.2C270.639 39.8133 270.052 40.2733 269.319 40.58C268.599 40.8867 267.805 41.04 266.939 41.04L267.359 40.68C268.532 40.68 269.459 40.9333 270.139 41.44C270.819 41.9333 271.159 42.68 271.159 43.68C271.159 44.6133 270.919 45.4 270.439 46.04C269.972 46.68 269.299 47.1667 268.419 47.5C267.539 47.8333 266.485 48 265.259 48H258.959ZM260.159 47.12H265.359C266.892 47.12 268.072 46.8267 268.899 46.24C269.725 45.6533 270.139 44.8133 270.139 43.72C270.139 42.8533 269.839 42.24 269.239 41.88C268.639 41.52 267.759 41.34 266.599 41.34H261.119L261.299 40.46H266.259C267.125 40.46 267.892 40.3333 268.559 40.08C269.225 39.8267 269.745 39.4533 270.119 38.96C270.505 38.4533 270.699 37.8267 270.699 37.08C270.699 36.3467 270.405 35.8 269.819 35.44C269.245 35.0667 268.432 34.88 267.379 34.88H262.599L260.159 47.12Z" fill="#000002"/>
<path d="M204.06 306L213.3 292H214.32L217.96 306H216.92L213.52 292.62H213.94L205.2 306H204.06ZM207.2 302.06L207.72 301.2H216.08L216.26 302.06H207.2ZM212.86 290.86L215.9 288.5H217.4L214 290.86H212.86ZM220.162 306L222.242 295.56H223.222L222.582 298.7L222.462 298.34C222.915 297.393 223.528 296.68 224.302 296.2C225.075 295.72 226.048 295.48 227.222 295.48L227.042 296.46C226.988 296.46 226.935 296.46 226.882 296.46C226.828 296.447 226.775 296.44 226.722 296.44C225.548 296.44 224.575 296.793 223.802 297.5C223.042 298.193 222.522 299.24 222.242 300.64L221.162 306H220.162ZM232.633 306.08C231.659 306.08 230.813 305.907 230.093 305.56C229.373 305.2 228.819 304.693 228.433 304.04C228.059 303.387 227.873 302.607 227.873 301.7C227.873 300.513 228.119 299.453 228.613 298.52C229.119 297.587 229.799 296.847 230.653 296.3C231.519 295.753 232.493 295.48 233.573 295.48C234.493 295.48 235.279 295.653 235.933 296C236.586 296.347 237.093 296.847 237.453 297.5C237.826 298.14 238.013 298.92 238.013 299.84C238.013 300.04 237.999 300.24 237.973 300.44C237.946 300.64 237.919 300.827 237.893 301H228.633L228.773 300.22H237.413L237.013 300.56C237.159 299.64 237.099 298.873 236.833 298.26C236.566 297.633 236.146 297.16 235.573 296.84C235.013 296.507 234.339 296.34 233.553 296.34C232.646 296.34 231.833 296.573 231.113 297.04C230.406 297.493 229.853 298.12 229.453 298.92C229.053 299.707 228.853 300.62 228.853 301.66C228.853 302.793 229.179 303.667 229.833 304.28C230.486 304.88 231.446 305.18 232.713 305.18C233.459 305.18 234.139 305.06 234.753 304.82C235.379 304.567 235.893 304.22 236.293 303.78L236.753 304.48C236.299 304.973 235.706 305.367 234.973 305.66C234.253 305.94 233.473 306.08 232.633 306.08ZM244.326 306.08C243.432 306.08 242.646 305.907 241.966 305.56C241.286 305.213 240.759 304.713 240.386 304.06C240.012 303.407 239.826 302.633 239.826 301.74C239.826 300.833 239.966 300 240.246 299.24C240.539 298.48 240.952 297.82 241.486 297.26C242.019 296.7 242.646 296.267 243.366 295.96C244.086 295.64 244.872 295.48 245.726 295.48C246.646 295.48 247.426 295.647 248.066 295.98C248.706 296.3 249.192 296.773 249.526 297.4C249.872 298.013 250.046 298.76 250.046 299.64C250.059 300.88 249.826 301.987 249.346 302.96C248.879 303.933 248.212 304.7 247.346 305.26C246.492 305.807 245.486 306.08 244.326 306.08ZM244.526 305.18C245.472 305.18 246.312 304.953 247.046 304.5C247.779 304.047 248.359 303.42 248.786 302.62C249.212 301.807 249.426 300.893 249.426 299.88C249.426 298.76 249.099 297.9 248.446 297.3C247.806 296.687 246.899 296.38 245.726 296.38C244.792 296.38 243.952 296.613 243.206 297.08C242.472 297.533 241.892 298.16 241.466 298.96C241.039 299.76 240.826 300.667 240.826 301.68C240.826 302.787 241.146 303.647 241.786 304.26C242.439 304.873 243.352 305.18 244.526 305.18ZM248.326 306L248.966 302.74L249.546 300.92L249.686 299L250.366 295.56H251.366L249.286 306H248.326ZM272.139 292H273.159L270.359 306H269.339L272.139 292ZM259.979 306H258.959L261.759 292H262.779L259.979 306ZM270.799 299.34H261.179L261.359 298.44H270.979L270.799 299.34Z" fill="#000002"/>
<path d="M46.06 138L55.3 124H56.32L59.96 138H58.92L55.52 124.62H55.94L47.2 138H46.06ZM49.2 134.06L49.72 133.2H58.08L58.26 134.06H49.2ZM54.86 122.86L57.9 120.5H59.4L56 122.86H54.86ZM62.1616 138L64.2416 127.56H65.2216L64.5816 130.7L64.4616 130.34C64.9149 129.393 65.5282 128.68 66.3016 128.2C67.0749 127.72 68.0482 127.48 69.2216 127.48L69.0416 128.46C68.9882 128.46 68.9349 128.46 68.8816 128.46C68.8282 128.447 68.7749 128.44 68.7216 128.44C67.5482 128.44 66.5749 128.793 65.8016 129.5C65.0416 130.193 64.5216 131.24 64.2416 132.64L63.1616 138H62.1616ZM74.6327 138.08C73.6593 138.08 72.8127 137.907 72.0927 137.56C71.3727 137.2 70.8193 136.693 70.4327 136.04C70.0593 135.387 69.8727 134.607 69.8727 133.7C69.8727 132.513 70.1193 131.453 70.6127 130.52C71.1193 129.587 71.7993 128.847 72.6527 128.3C73.5193 127.753 74.4927 127.48 75.5727 127.48C76.4927 127.48 77.2793 127.653 77.9327 128C78.586 128.347 79.0927 128.847 79.4527 129.5C79.826 130.14 80.0127 130.92 80.0127 131.84C80.0127 132.04 79.9993 132.24 79.9727 132.44C79.946 132.64 79.9193 132.827 79.8927 133H70.6327L70.7727 132.22H79.4127L79.0127 132.56C79.1593 131.64 79.0993 130.873 78.8327 130.26C78.566 129.633 78.146 129.16 77.5727 128.84C77.0127 128.507 76.3393 128.34 75.5527 128.34C74.646 128.34 73.8327 128.573 73.1127 129.04C72.406 129.493 71.8527 130.12 71.4527 130.92C71.0527 131.707 70.8527 132.62 70.8527 133.66C70.8527 134.793 71.1793 135.667 71.8327 136.28C72.486 136.88 73.446 137.18 74.7127 137.18C75.4593 137.18 76.1393 137.06 76.7527 136.82C77.3793 136.567 77.8927 136.22 78.2927 135.78L78.7527 136.48C78.2993 136.973 77.706 137.367 76.9727 137.66C76.2527 137.94 75.4727 138.08 74.6327 138.08ZM86.3258 138.08C85.4324 138.08 84.6458 137.907 83.9658 137.56C83.2858 137.213 82.7591 136.713 82.3858 136.06C82.0124 135.407 81.8258 134.633 81.8258 133.74C81.8258 132.833 81.9658 132 82.2458 131.24C82.5391 130.48 82.9524 129.82 83.4858 129.26C84.0191 128.7 84.6458 128.267 85.3658 127.96C86.0858 127.64 86.8724 127.48 87.7258 127.48C88.6458 127.48 89.4258 127.647 90.0658 127.98C90.7058 128.3 91.1924 128.773 91.5258 129.4C91.8724 130.013 92.0458 130.76 92.0458 131.64C92.0591 132.88 91.8258 133.987 91.3458 134.96C90.8791 135.933 90.2124 136.7 89.3458 137.26C88.4924 137.807 87.4858 138.08 86.3258 138.08ZM86.5258 137.18C87.4724 137.18 88.3124 136.953 89.0458 136.5C89.7791 136.047 90.3591 135.42 90.7858 134.62C91.2124 133.807 91.4258 132.893 91.4258 131.88C91.4258 130.76 91.0991 129.9 90.4458 129.3C89.8058 128.687 88.8991 128.38 87.7258 128.38C86.7924 128.38 85.9524 128.613 85.2058 129.08C84.4724 129.533 83.8924 130.16 83.4658 130.96C83.0391 131.76 82.8258 132.667 82.8258 133.68C82.8258 134.787 83.1458 135.647 83.7858 136.26C84.4391 136.873 85.3524 137.18 86.5258 137.18ZM90.3258 138L90.9658 134.74L91.5458 132.92L91.6858 131L92.3658 127.56H93.3658L91.2858 138H90.3258ZM107.339 138.1C105.965 138.1 104.799 137.86 103.839 137.38C102.879 136.9 102.145 136.227 101.639 135.36C101.145 134.493 100.899 133.487 100.899 132.34C100.899 131.207 101.092 130.133 101.479 129.12C101.865 128.107 102.425 127.207 103.159 126.42C103.892 125.633 104.779 125.02 105.819 124.58C106.872 124.127 108.059 123.9 109.379 123.9C110.472 123.9 111.439 124.067 112.279 124.4C113.119 124.733 113.772 125.207 114.239 125.82L113.519 126.48C113.065 125.933 112.485 125.527 111.779 125.26C111.085 124.98 110.259 124.84 109.299 124.84C108.165 124.84 107.145 125.04 106.239 125.44C105.332 125.827 104.559 126.367 103.919 127.06C103.279 127.74 102.785 128.533 102.439 129.44C102.092 130.333 101.919 131.287 101.919 132.3C101.919 133.26 102.125 134.107 102.539 134.84C102.952 135.573 103.565 136.147 104.379 136.56C105.205 136.96 106.219 137.16 107.419 137.16C108.379 137.16 109.245 137.02 110.019 136.74C110.805 136.447 111.479 136.027 112.039 135.48L112.659 136.18C112.059 136.78 111.292 137.253 110.359 137.6C109.425 137.933 108.419 138.1 107.339 138.1Z" fill="#000002"/>
</svg>
