<svg width="315" height="334" viewBox="0 0 315 334" fill="none" xmlns="http://www.w3.org/2000/svg">
<rect width="315" height="334" rx="22" fill="#EAEAEA"/>
<path d="M46.06 308L55.3 294H56.32L59.96 308H58.92L55.52 294.62H55.94L47.2 308H46.06ZM49.2 304.06L49.72 303.2H58.08L58.26 304.06H49.2ZM54.86 292.86L57.9 290.5H59.4L56 292.86H54.86ZM62.1616 308L64.2416 297.56H65.2216L64.5816 300.7L64.4616 300.34C64.9149 299.393 65.5282 298.68 66.3016 298.2C67.0749 297.72 68.0482 297.48 69.2216 297.48L69.0416 298.46C68.9882 298.46 68.9349 298.46 68.8816 298.46C68.8282 298.447 68.7749 298.44 68.7216 298.44C67.5482 298.44 66.5749 298.793 65.8016 299.5C65.0416 300.193 64.5216 301.24 64.2416 302.64L63.1616 308H62.1616ZM74.6327 308.08C73.6593 308.08 72.8127 307.907 72.0927 307.56C71.3727 307.2 70.8193 306.693 70.4327 306.04C70.0593 305.387 69.8727 304.607 69.8727 303.7C69.8727 302.513 70.1193 301.453 70.6127 300.52C71.1193 299.587 71.7993 298.847 72.6527 298.3C73.5193 297.753 74.4927 297.48 75.5727 297.48C76.4927 297.48 77.2793 297.653 77.9327 298C78.586 298.347 79.0927 298.847 79.4527 299.5C79.826 300.14 80.0127 300.92 80.0127 301.84C80.0127 302.04 79.9993 302.24 79.9727 302.44C79.946 302.64 79.9193 302.827 79.8927 303H70.6327L70.7727 302.22H79.4127L79.0127 302.56C79.1593 301.64 79.0993 300.873 78.8327 300.26C78.566 299.633 78.146 299.16 77.5727 298.84C77.0127 298.507 76.3393 298.34 75.5527 298.34C74.646 298.34 73.8327 298.573 73.1127 299.04C72.406 299.493 71.8527 300.12 71.4527 300.92C71.0527 301.707 70.8527 302.62 70.8527 303.66C70.8527 304.793 71.1793 305.667 71.8327 306.28C72.486 306.88 73.446 307.18 74.7127 307.18C75.4593 307.18 76.1393 307.06 76.7527 306.82C77.3793 306.567 77.8927 306.22 78.2927 305.78L78.7527 306.48C78.2993 306.973 77.706 307.367 76.9727 307.66C76.2527 307.94 75.4727 308.08 74.6327 308.08ZM86.3258 308.08C85.4324 308.08 84.6458 307.907 83.9658 307.56C83.2858 307.213 82.7591 306.713 82.3858 306.06C82.0124 305.407 81.8258 304.633 81.8258 303.74C81.8258 302.833 81.9658 302 82.2458 301.24C82.5391 300.48 82.9524 299.82 83.4858 299.26C84.0191 298.7 84.6458 298.267 85.3658 297.96C86.0858 297.64 86.8724 297.48 87.7258 297.48C88.6458 297.48 89.4258 297.647 90.0658 297.98C90.7058 298.3 91.1924 298.773 91.5258 299.4C91.8724 300.013 92.0458 300.76 92.0458 301.64C92.0591 302.88 91.8258 303.987 91.3458 304.96C90.8791 305.933 90.2124 306.7 89.3458 307.26C88.4924 307.807 87.4858 308.08 86.3258 308.08ZM86.5258 307.18C87.4724 307.18 88.3124 306.953 89.0458 306.5C89.7791 306.047 90.3591 305.42 90.7858 304.62C91.2124 303.807 91.4258 302.893 91.4258 301.88C91.4258 300.76 91.0991 299.9 90.4458 299.3C89.8058 298.687 88.8991 298.38 87.7258 298.38C86.7924 298.38 85.9524 298.613 85.2058 299.08C84.4724 299.533 83.8924 300.16 83.4658 300.96C83.0391 301.76 82.8258 302.667 82.8258 303.68C82.8258 304.787 83.1458 305.647 83.7858 306.26C84.4391 306.873 85.3524 307.18 86.5258 307.18ZM90.3258 308L90.9658 304.74L91.5458 302.92L91.6858 301L92.3658 297.56H93.3658L91.2858 308H90.3258ZM107.339 308.1C105.965 308.1 104.799 307.86 103.839 307.38C102.892 306.9 102.165 306.227 101.659 305.36C101.152 304.493 100.899 303.487 100.899 302.34C100.899 301.207 101.092 300.133 101.479 299.12C101.865 298.107 102.425 297.207 103.159 296.42C103.892 295.633 104.785 295.02 105.839 294.58C106.892 294.127 108.079 293.9 109.399 293.9C110.519 293.9 111.512 294.073 112.379 294.42C113.245 294.753 113.925 295.227 114.419 295.84L113.699 296.48C113.219 295.92 112.612 295.507 111.879 295.24C111.159 294.973 110.312 294.84 109.339 294.84C108.205 294.84 107.179 295.033 106.259 295.42C105.352 295.807 104.572 296.347 103.919 297.04C103.279 297.72 102.785 298.513 102.439 299.42C102.092 300.327 101.919 301.287 101.919 302.3C101.919 303.26 102.125 304.107 102.539 304.84C102.952 305.573 103.565 306.147 104.379 306.56C105.205 306.96 106.232 307.16 107.459 307.16C108.339 307.16 109.139 307.02 109.859 306.74C110.579 306.447 111.245 306.033 111.859 305.5L112.279 306.32C111.665 306.867 110.925 307.3 110.059 307.62C109.205 307.94 108.299 308.1 107.339 308.1ZM111.319 306.2L112.359 301.06H113.339L112.279 306.32L111.319 306.2Z" fill="#000002"/>
<path d="M46.06 226L55.3 212H56.32L59.96 226H58.92L55.52 212.62H55.94L47.2 226H46.06ZM49.2 222.06L49.72 221.2H58.08L58.26 222.06H49.2ZM54.86 210.86L57.9 208.5H59.4L56 210.86H54.86ZM62.1616 226L64.2416 215.56H65.2216L64.5816 218.7L64.4616 218.34C64.9149 217.393 65.5282 216.68 66.3016 216.2C67.0749 215.72 68.0482 215.48 69.2216 215.48L69.0416 216.46C68.9882 216.46 68.9349 216.46 68.8816 216.46C68.8282 216.447 68.7749 216.44 68.7216 216.44C67.5482 216.44 66.5749 216.793 65.8016 217.5C65.0416 218.193 64.5216 219.24 64.2416 220.64L63.1616 226H62.1616ZM74.6327 226.08C73.6593 226.08 72.8127 225.907 72.0927 225.56C71.3727 225.2 70.8193 224.693 70.4327 224.04C70.0593 223.387 69.8727 222.607 69.8727 221.7C69.8727 220.513 70.1193 219.453 70.6127 218.52C71.1193 217.587 71.7993 216.847 72.6527 216.3C73.5193 215.753 74.4927 215.48 75.5727 215.48C76.4927 215.48 77.2793 215.653 77.9327 216C78.586 216.347 79.0927 216.847 79.4527 217.5C79.826 218.14 80.0127 218.92 80.0127 219.84C80.0127 220.04 79.9993 220.24 79.9727 220.44C79.946 220.64 79.9193 220.827 79.8927 221H70.6327L70.7727 220.22H79.4127L79.0127 220.56C79.1593 219.64 79.0993 218.873 78.8327 218.26C78.566 217.633 78.146 217.16 77.5727 216.84C77.0127 216.507 76.3393 216.34 75.5527 216.34C74.646 216.34 73.8327 216.573 73.1127 217.04C72.406 217.493 71.8527 218.12 71.4527 218.92C71.0527 219.707 70.8527 220.62 70.8527 221.66C70.8527 222.793 71.1793 223.667 71.8327 224.28C72.486 224.88 73.446 225.18 74.7127 225.18C75.4593 225.18 76.1393 225.06 76.7527 224.82C77.3793 224.567 77.8927 224.22 78.2927 223.78L78.7527 224.48C78.2993 224.973 77.706 225.367 76.9727 225.66C76.2527 225.94 75.4727 226.08 74.6327 226.08ZM86.3258 226.08C85.4324 226.08 84.6458 225.907 83.9658 225.56C83.2858 225.213 82.7591 224.713 82.3858 224.06C82.0124 223.407 81.8258 222.633 81.8258 221.74C81.8258 220.833 81.9658 220 82.2458 219.24C82.5391 218.48 82.9524 217.82 83.4858 217.26C84.0191 216.7 84.6458 216.267 85.3658 215.96C86.0858 215.64 86.8724 215.48 87.7258 215.48C88.6458 215.48 89.4258 215.647 90.0658 215.98C90.7058 216.3 91.1924 216.773 91.5258 217.4C91.8724 218.013 92.0458 218.76 92.0458 219.64C92.0591 220.88 91.8258 221.987 91.3458 222.96C90.8791 223.933 90.2124 224.7 89.3458 225.26C88.4924 225.807 87.4858 226.08 86.3258 226.08ZM86.5258 225.18C87.4724 225.18 88.3124 224.953 89.0458 224.5C89.7791 224.047 90.3591 223.42 90.7858 222.62C91.2124 221.807 91.4258 220.893 91.4258 219.88C91.4258 218.76 91.0991 217.9 90.4458 217.3C89.8058 216.687 88.8991 216.38 87.7258 216.38C86.7924 216.38 85.9524 216.613 85.2058 217.08C84.4724 217.533 83.8924 218.16 83.4658 218.96C83.0391 219.76 82.8258 220.667 82.8258 221.68C82.8258 222.787 83.1458 223.647 83.7858 224.26C84.4391 224.873 85.3524 225.18 86.5258 225.18ZM90.3258 226L90.9658 222.74L91.5458 220.92L91.6858 219L92.3658 215.56H93.3658L91.2858 226H90.3258ZM103.359 218.44H110.939L110.759 219.34H103.179L103.359 218.44ZM102.159 225.08H110.799L110.599 226H100.959L103.759 212H113.119L112.919 212.92H104.599L102.159 225.08Z" fill="#000002"/>
<line x1="159.5" y1="1.99548" x2="160.5" y2="333.995" stroke="white" stroke-width="3"/>
<line x1="1" y1="83.5" x2="315" y2="83.5" stroke="white" stroke-width="3"/>
<path d="M0 174H314" stroke="white" stroke-width="3"/>
<path d="M1 258.5H315" stroke="white" stroke-width="3"/>
<rect x="162" y="85" width="152" height="87" fill="#FFED4B" fill-opacity="0.54"/>
<path d="M204.06 226L213.3 212H214.32L217.96 226H216.92L213.52 212.62H213.94L205.2 226H204.06ZM207.2 222.06L207.72 221.2H216.08L216.26 222.06H207.2ZM212.86 210.86L215.9 208.5H217.4L214 210.86H212.86ZM220.162 226L222.242 215.56H223.222L222.582 218.7L222.462 218.34C222.915 217.393 223.528 216.68 224.302 216.2C225.075 215.72 226.048 215.48 227.222 215.48L227.042 216.46C226.988 216.46 226.935 216.46 226.882 216.46C226.828 216.447 226.775 216.44 226.722 216.44C225.548 216.44 224.575 216.793 223.802 217.5C223.042 218.193 222.522 219.24 222.242 220.64L221.162 226H220.162ZM232.633 226.08C231.659 226.08 230.813 225.907 230.093 225.56C229.373 225.2 228.819 224.693 228.433 224.04C228.059 223.387 227.873 222.607 227.873 221.7C227.873 220.513 228.119 219.453 228.613 218.52C229.119 217.587 229.799 216.847 230.653 216.3C231.519 215.753 232.493 215.48 233.573 215.48C234.493 215.48 235.279 215.653 235.933 216C236.586 216.347 237.093 216.847 237.453 217.5C237.826 218.14 238.013 218.92 238.013 219.84C238.013 220.04 237.999 220.24 237.973 220.44C237.946 220.64 237.919 220.827 237.893 221H228.633L228.773 220.22H237.413L237.013 220.56C237.159 219.64 237.099 218.873 236.833 218.26C236.566 217.633 236.146 217.16 235.573 216.84C235.013 216.507 234.339 216.34 233.553 216.34C232.646 216.34 231.833 216.573 231.113 217.04C230.406 217.493 229.853 218.12 229.453 218.92C229.053 219.707 228.853 220.62 228.853 221.66C228.853 222.793 229.179 223.667 229.833 224.28C230.486 224.88 231.446 225.18 232.713 225.18C233.459 225.18 234.139 225.06 234.753 224.82C235.379 224.567 235.893 224.22 236.293 223.78L236.753 224.48C236.299 224.973 235.706 225.367 234.973 225.66C234.253 225.94 233.473 226.08 232.633 226.08ZM244.326 226.08C243.432 226.08 242.646 225.907 241.966 225.56C241.286 225.213 240.759 224.713 240.386 224.06C240.012 223.407 239.826 222.633 239.826 221.74C239.826 220.833 239.966 220 240.246 219.24C240.539 218.48 240.952 217.82 241.486 217.26C242.019 216.7 242.646 216.267 243.366 215.96C244.086 215.64 244.872 215.48 245.726 215.48C246.646 215.48 247.426 215.647 248.066 215.98C248.706 216.3 249.192 216.773 249.526 217.4C249.872 218.013 250.046 218.76 250.046 219.64C250.059 220.88 249.826 221.987 249.346 222.96C248.879 223.933 248.212 224.7 247.346 225.26C246.492 225.807 245.486 226.08 244.326 226.08ZM244.526 225.18C245.472 225.18 246.312 224.953 247.046 224.5C247.779 224.047 248.359 223.42 248.786 222.62C249.212 221.807 249.426 220.893 249.426 219.88C249.426 218.76 249.099 217.9 248.446 217.3C247.806 216.687 246.899 216.38 245.726 216.38C244.792 216.38 243.952 216.613 243.206 217.08C242.472 217.533 241.892 218.16 241.466 218.96C241.039 219.76 240.826 220.667 240.826 221.68C240.826 222.787 241.146 223.647 241.786 224.26C242.439 224.873 243.352 225.18 244.526 225.18ZM248.326 226L248.966 222.74L249.546 220.92L249.686 219L250.366 215.56H251.366L249.286 226H248.326ZM261.259 218.9H268.839L268.659 219.82H261.079L261.259 218.9ZM259.979 226H258.959L261.759 212H271.119L270.919 212.92H262.599L259.979 226Z" fill="#000002"/>
</svg>
