<svg width="77" height="81" viewBox="0 0 77 81" fill="none" xmlns="http://www.w3.org/2000/svg">
<path d="M66.1308 27L46.2916 6.75H19.8392C18.0853 6.75 16.4032 7.46116 15.163 8.72703C13.9228 9.9929 13.2261 11.7098 13.2261 13.5V67.5C13.2261 69.2902 13.9228 71.0071 15.163 72.273C16.4032 73.5388 18.0853 74.25 19.8392 74.25H59.5177C61.2716 74.25 62.9537 73.5388 64.1939 72.273C65.4341 71.0071 66.1308 69.2902 66.1308 67.5V27ZM29.7588 64.125H23.1457V33.75H29.7588V64.125ZM42.985 64.125H36.3719V43.875H42.985V64.125ZM56.2112 64.125H49.5981V54H56.2112V64.125ZM46.2916 30.375H42.985V13.5L59.5177 30.375H46.2916Z" fill="white"/>
</svg>
